<?xml version="1.0" standalone="no"?>
<!DOCTYPE svg PUBLIC "-//W3C//DTD SVG 20010904//EN"
 "http://www.w3.org/TR/2001/REC-SVG-20010904/DTD/svg10.dtd">
<svg version="1.0" xmlns="http://www.w3.org/2000/svg"
 width="141.000000pt" height="141.000000pt" viewBox="0 0 141.000000 141.000000"
 preserveAspectRatio="xMidYMid meet">
<metadata>
Created by potrace 1.14, written by Peter Selinger 2001-2017
</metadata>
<g transform="translate(0.000000,141.000000) scale(0.100000,-0.100000)"
fill="#000000" stroke="none">
<path d="M211 1093 c-77 -15 -178 -118 -202 -207 -37 -137 45 -296 180 -347
88 -33 167 -22 283 39 4 2 68 -58 143 -133 133 -135 165 -155 173 -112 3 12
-40 62 -132 154 -75 75 -135 139 -133 142 41 72 52 111 52 186 0 94 -20 141
-89 209 -64 64 -165 89 -275 69z m185 -80 c80 -41 132 -142 119 -234 -25 -184
-253 -259 -384 -127 -97 99 -87 259 22 342 65 49 169 58 243 19z"/>
<path d="M254 970 c-58 -23 -70 -95 -25 -141 59 -59 151 -20 151 64 0 56 -72
99 -126 77z"/>
<path d="M194 761 c-23 -10 -48 -29 -57 -41 -15 -21 -15 -25 4 -49 54 -68 151
-90 234 -52 82 37 96 88 36 128 -31 21 -97 40 -106 31 -2 -2 2 -30 9 -61 12
-53 12 -59 -6 -79 l-19 -23 -18 24 c-17 22 -17 29 -5 75 8 28 14 54 14 59 0
13 -44 7 -86 -12z"/>
<path d="M1065 969 c1 -52 34 -79 88 -70 4 0 7 -15 7 -34 0 -39 -7 -43 -26
-17 -12 16 -13 16 -19 0 -4 -10 -12 -18 -17 -18 -6 0 -6 6 2 15 20 24 3 54
-31 53 -24 -1 -28 -4 -24 -20 4 -10 8 -29 9 -43 4 -39 20 -50 46 -32 19 13 25
13 48 1 15 -7 30 -10 33 -6 4 4 9 37 11 74 2 37 7 70 10 74 11 11 69 -7 61
-19 -4 -6 -5 -33 -4 -60 2 -33 -1 -47 -8 -42 -6 3 -9 18 -5 33 4 23 4 25 -6 9
-15 -23 -6 -63 16 -71 28 -11 35 4 33 65 -1 32 1 62 4 66 14 13 7 42 -10 42
-10 -1 -43 2 -73 5 -30 3 -61 1 -69 -3 -17 -11 -7 -41 14 -41 17 0 20 16 5 23
-6 3 -5 4 2 3 20 -4 15 -30 -5 -34 -49 -10 -98 31 -62 51 13 7 14 12 4 23 -21
26 -35 15 -34 -27z m20 -108 c-3 -6 -11 -11 -17 -11 -6 0 -6 6 2 15 14 17 26
13 15 -4z"/>
<path d="M725 970 c-11 -4 -30 -6 -42 -4 -21 4 -25 -8 -12 -31 4 -5 5 -37 4
-70 -1 -52 6 -74 25 -75 3 0 5 25 4 55 -1 59 13 74 56 60 18 -6 20 -14 17 -61
-1 -30 0 -54 3 -54 18 1 26 22 25 70 0 47 -3 56 -23 66 -13 6 -40 10 -60 8
-36 -3 -36 -3 -8 6 36 11 132 11 160 0 12 -5 15 -9 8 -9 -9 -1 -11 -12 -7 -38
3 -21 2 -32 -1 -25 -9 20 -24 3 -24 -27 0 -31 22 -56 43 -48 9 3 12 24 12 68
-1 35 3 70 8 77 11 14 4 24 -21 29 -42 8 -149 10 -167 3z m155 -130 c0 -5 -4
-10 -10 -10 -5 0 -10 5 -10 10 0 6 5 10 10 10 6 0 10 -4 10 -10z"/>
<path d="M967 969 c-19 -11 -23 -44 -7 -54 15 -9 12 -55 -2 -52 -16 3 -13 -40
3 -60 25 -29 39 -14 39 40 0 30 3 57 7 61 4 4 8 22 10 39 2 35 -16 45 -50 26z
m17 -23 c-3 -8 2 -16 13 -20 15 -4 15 -5 -2 -3 -20 2 -35 37 -16 37 6 0 8 -6
5 -14z m-14 -111 c0 -8 -2 -15 -4 -15 -2 0 -6 7 -10 15 -3 8 -1 15 4 15 6 0
10 -7 10 -15z"/>
<path d="M1342 967 c-12 -14 -11 -28 6 -70 15 -36 15 -38 -4 -30 -12 5 -15 -1
-12 -27 3 -31 30 -61 43 -48 4 3 7 29 8 58 0 28 4 53 9 56 16 10 8 21 -14 20
-14 -1 -24 6 -26 17 -2 9 1 17 7 17 6 0 10 -5 9 -11 -5 -21 21 -20 32 0 6 12
9 21 8 22 -29 8 -58 7 -66 -4z m13 -126 c3 -5 1 -12 -5 -16 -5 -3 -10 1 -10 9
0 18 6 21 15 7z"/>
<path d="M760 673 c14 -7 13 -41 -2 -46 -8 -2 -7 -3 2 -3 18 2 20 48 2 52 -7
1 -8 0 -2 -3z"/>
<path d="M840 653 c0 -26 4 -33 19 -33 25 0 37 18 22 33 -9 9 -11 8 -6 -5 5
-13 2 -18 -10 -18 -10 0 -15 5 -12 13 3 8 1 20 -4 28 -6 10 -9 4 -9 -18z"/>
<path d="M920 666 c-9 -11 -9 -19 0 -33 10 -16 10 -15 5 5 -5 17 -1 24 17 31
15 7 17 10 7 10 -9 1 -22 -6 -29 -13z"/>
<path d="M1111 653 c-1 -38 10 -41 45 -14 l24 19 -24 0 c-17 0 -23 -5 -19 -14
3 -8 0 -14 -5 -14 -6 0 -13 12 -15 28 -4 25 -4 25 -6 -5z"/>
<path d="M1240 655 c0 -14 -5 -25 -11 -25 -6 0 -9 7 -5 15 3 8 1 15 -4 15 -6
0 -10 -9 -10 -20 0 -13 7 -20 20 -20 16 0 20 7 20 30 0 17 -2 30 -5 30 -3 0
-5 -11 -5 -25z"/>
<path d="M790 649 c0 -5 5 -7 10 -4 6 3 10 8 10 11 0 2 -4 4 -10 4 -5 0 -10
-5 -10 -11z"/>
<path d="M820 646 c0 -8 -8 -17 -17 -19 -14 -4 -12 -5 5 -6 16 -1 22 5 22 19
0 11 -2 20 -5 20 -3 0 -5 -6 -5 -14z"/>
<path d="M973 638 c-1 -12 5 -18 18 -18 12 0 19 7 19 19 0 25 -36 24 -37 -1z
m27 2 c0 -5 -5 -10 -11 -10 -5 0 -7 5 -4 10 3 6 8 10 11 10 2 0 4 -4 4 -10z"/>
<path d="M1020 640 c0 -11 2 -20 4 -20 2 0 6 9 9 20 3 11 1 20 -4 20 -5 0 -9
-9 -9 -20z"/>
<path d="M1051 638 c1 -17 2 -19 6 -5 2 9 8 17 13 17 5 0 11 -8 13 -17 4 -14
5 -12 6 5 1 16 -5 22 -19 22 -14 0 -20 -6 -19 -22z"/>
<path d="M1192 640 c0 -14 2 -19 5 -12 2 6 2 18 0 25 -3 6 -5 1 -5 -13z"/>
<path d="M1267 645 c-4 -8 -3 -16 1 -19 4 -3 9 4 9 15 2 23 -3 25 -10 4z"/>
<path d="M1303 641 c9 -12 9 -13 0 -7 -7 4 -13 2 -13 -3 0 -6 7 -11 15 -11 8
0 15 8 15 18 0 10 -7 19 -15 19 -12 0 -12 -3 -2 -16z"/>
<path d="M1160 630 c0 -5 5 -10 11 -10 5 0 7 5 4 10 -3 6 -8 10 -11 10 -2 0
-4 -4 -4 -10z"/>
</g>
</svg>
